HIERARCHY
ROOT Hips
{
  OFFSET 5.84602e-005 68.8428 3.50346
  CHANNELS 6 Xposition Yposition Zposition Zrotation Xrotation Yrotation
  JOINT Spine
  {
    OFFSET 0 8.597 -4.6522
    CHANNELS 3 Zrotation Xrotation Yrotation
    JOINT Spine1
    {
      OFFSET 0 7.8454 0.4098
      CHANNELS 3 Zrotation Xrotation Yrotation
      JOINT Spine2
      {
        OFFSET 0 9.7078 -2.1609
        CHANNELS 3 Zrotation Xrotation Yrotation
        JOINT Neck
        {
          OFFSET 0 21.8761 -0.4549
          CHANNELS 3 Zrotation Xrotation Yrotation
          JOINT Head
          {
            OFFSET 0 12.3537 3.3602
            CHANNELS 3 Zrotation Xrotation Yrotation
            End Site
            {
              OFFSET 0.0001 18.9506 0.5657
            }
          }
        }
        JOINT LeftShoulder
        {
          OFFSET 2.2086 21.1115 7.2329
          CHANNELS 3 Zrotation Xrotation Yrotation
          JOINT LeftArm
          {
            OFFSET 13.1193 3.0282 -4.8998
            CHANNELS 3 Zrotation Xrotation Yrotation
            JOINT LeftForeArm
            {
              OFFSET 27.4081 -0.0973053 -0.2375
              CHANNELS 3 Zrotation Xrotation Yrotation
              JOINT LeftHand
              {
                OFFSET 22.8641 0.0662994 -0.1369
                CHANNELS 3 Zrotation Xrotation Yrotation
                JOINT LeftHandIndex1
                {
                  OFFSET 8.8614 0.775009 2.4612
                  CHANNELS 3 Zrotation Xrotation Yrotation
                  JOINT LeftHandIndex2
                  {
                    OFFSET 3.3146 -0.808304 0.5841
                    CHANNELS 3 Zrotation Xrotation Yrotation
                    JOINT LeftHandIndex3
                    {
                      OFFSET 2.2628 -0.552002 0.3989
                      CHANNELS 3 Zrotation Xrotation Yrotation
                      End Site
                      {
                        OFFSET 1.6102 -0.4807 0.2612
                      }
                    }
                  }
                }
                JOINT LeftHandMiddle1
                {
                  OFFSET 8.9937 0.895004 0.2143
                  CHANNELS 3 Zrotation Xrotation Yrotation
                  JOINT LeftHandMiddle2
                  {
                    OFFSET 4.0984 0.0113983 -0.0242
                    CHANNELS 3 Zrotation Xrotation Yrotation
                    JOINT LeftHandMiddle3
                    {
                      OFFSET 2.2716 0.00689697 -0.0138001
                      CHANNELS 3 Zrotation Xrotation Yrotation
                      End Site
                      {
                        OFFSET 2.0404 -0.1441 0.0027
                      }
                    }
                  }
                }
                JOINT LeftHandRing1
                {
                  OFFSET 8.5234 0.597198 -2.0164
                  CHANNELS 3 Zrotation Xrotation Yrotation
                  JOINT LeftHandRing2
                  {
                    OFFSET 3.7188 -0.188293 -0.2328
                    CHANNELS 3 Zrotation Xrotation Yrotation
                    JOINT LeftHandRing3
                    {
                      OFFSET 2.1191 -0.106598 -0.1332
                      CHANNELS 3 Zrotation Xrotation Yrotation
                      End Site
                      {
                        OFFSET 1.8737 -0.2304 -0.0886
                      }
                    }
                  }
                }
                JOINT LeftHandPinky1
                {
                  OFFSET 7.9094 -0.601089 -3.4825
                  CHANNELS 3 Zrotation Xrotation Yrotation
                  JOINT LeftHandPinky2
                  {
                    OFFSET 2.2874 -0.477005 -0.6314
                    CHANNELS 3 Zrotation Xrotation Yrotation
                    JOINT LeftHandPinky3
                    {
                      OFFSET 1.6774 -0.349396 -0.4633
                      CHANNELS 3 Zrotation Xrotation Yrotation
                      End Site
                      {
                        OFFSET 1.4888 -0.4091 -0.3416
                      }
                    }
                  }
                }
                JOINT LeftHandThumb1
                {
                  OFFSET 1.833 -1.3875 1.3896
                  CHANNELS 3 Zrotation Xrotation Yrotation
                  JOINT LeftHandThumb2
                  {
                    OFFSET 3.4129 -1.121 2.5732
                    CHANNELS 3 Zrotation Xrotation Yrotation
                    JOINT LeftHandThumb3
                    {
                      OFFSET 2.2474 -0.804199 1.6192
                      CHANNELS 3 Zrotation Xrotation Yrotation
                      End Site
                      {
                        OFFSET 1.6527 -0.5689 1.1317
                      }
                    }
                  }
                }
              }
            }
          }
        }
        JOINT RightShoulder
        {
          OFFSET -2.2086 21.1115 7.2329
          CHANNELS 3 Zrotation Xrotation Yrotation
          JOINT RightArm
          {
            OFFSET -13.1216 3.0287 -4.9007
            CHANNELS 3 Zrotation Xrotation Yrotation
            JOINT RightForeArm
            {
              OFFSET -27.4081 -0.0973053 -0.2375
              CHANNELS 3 Zrotation Xrotation Yrotation
              JOINT RightHand
              {
                OFFSET -22.8641 0.0664063 -0.1369
                CHANNELS 3 Zrotation Xrotation Yrotation
                JOINT RightHandIndex1
                {
                  OFFSET -8.8614 0.774994 2.4612
                  CHANNELS 3 Zrotation Xrotation Yrotation
                  JOINT RightHandIndex2
                  {
                    OFFSET -3.3146 -0.808304 0.5841
                    CHANNELS 3 Zrotation Xrotation Yrotation
                    JOINT RightHandIndex3
                    {
                      OFFSET -2.2628 -0.552002 0.3989
                      CHANNELS 3 Zrotation Xrotation Yrotation
                      End Site
                      {
                        OFFSET -1.6102 -0.4807 0.2612
                      }
                    }
                  }
                }
                JOINT RightHandMiddle1
                {
                  OFFSET -8.9937 0.894989 0.2143
                  CHANNELS 3 Zrotation Xrotation Yrotation
                  JOINT RightHandMiddle2
                  {
                    OFFSET -4.0984 0.0113983 -0.0242
                    CHANNELS 3 Zrotation Xrotation Yrotation
                    JOINT RightHandMiddle3
                    {
                      OFFSET -2.2716 0.00691223 -0.0138001
                      CHANNELS 3 Zrotation Xrotation Yrotation
                      End Site
                      {
                        OFFSET -2.0404 -0.1441 0.0027
                      }
                    }
                  }
                }
                JOINT RightHandRing1
                {
                  OFFSET -8.5234 0.597198 -2.0164
                  CHANNELS 3 Zrotation Xrotation Yrotation
                  JOINT RightHandRing2
                  {
                    OFFSET -3.7188 -0.188309 -0.2328
                    CHANNELS 3 Zrotation Xrotation Yrotation
                    JOINT RightHandRing3
                    {
                      OFFSET -2.1191 -0.106598 -0.1332
                      CHANNELS 3 Zrotation Xrotation Yrotation
                      End Site
                      {
                        OFFSET -1.8737 -0.2304 -0.0886
                      }
                    }
                  }
                }
                JOINT RightHandPinky1
                {
                  OFFSET -7.9094 -0.601105 -3.4825
                  CHANNELS 3 Zrotation Xrotation Yrotation
                  JOINT RightHandPinky2
                  {
                    OFFSET -2.2874 -0.477005 -0.6314
                    CHANNELS 3 Zrotation Xrotation Yrotation
                    JOINT RightHandPinky3
                    {
                      OFFSET -1.6774 -0.349396 -0.4633
                      CHANNELS 3 Zrotation Xrotation Yrotation
                      End Site
                      {
                        OFFSET -1.4888 -0.4091 -0.3416
                      }
                    }
                  }
                }
                JOINT RightHandThumb1
                {
                  OFFSET -1.833 -1.38751 1.3896
                  CHANNELS 3 Zrotation Xrotation Yrotation
                  JOINT RightHandThumb2
                  {
                    OFFSET -3.41299 -1.12099 2.5732
                    CHANNELS 3 Zrotation Xrotation Yrotation
                    JOINT RightHandThumb3
                    {
                      OFFSET -2.24741 -0.804108 1.6192
                      CHANNELS 3 Zrotation Xrotation Yrotation
                      End Site
                      {
                        OFFSET -1.6527 -0.5689 1.1317
                      }
                    }
                  }
                }
              }
            }
          }
        }
      }
    }
  }
  JOINT RightUpLeg
  {
    OFFSET -9.1966 3.8861 -0.7581
    CHANNELS 3 Zrotation Xrotation Yrotation
    JOINT RightLeg
    {
      OFFSET -0.7359 -41.0265 0
      CHANNELS 3 Zrotation Xrotation Yrotation
      JOINT RightFoot
      {
        OFFSET 0 -40.2855 0
        CHANNELS 3 Zrotation Xrotation Yrotation
        JOINT RightToeBase
        {
          OFFSET 0 -5.6122 11.7359
          CHANNELS 3 Zrotation Xrotation Yrotation
          End Site
          {
            OFFSET 0 0 7.8731
          }
        }
      }
    }
  }
  JOINT LeftUpLeg
  {
    OFFSET 9.1965 3.8864 -0.7581
    CHANNELS 3 Zrotation Xrotation Yrotation
    JOINT LeftLeg
    {
      OFFSET 0.7359 -41.0268 0
      CHANNELS 3 Zrotation Xrotation Yrotation
      JOINT LeftFoot
      {
        OFFSET 0 -40.2855 0
        CHANNELS 3 Zrotation Xrotation Yrotation
        JOINT LeftToeBase
        {
          OFFSET 0 -5.6122 11.7359
          CHANNELS 3 Zrotation Xrotation Yrotation
          End Site
          {
            OFFSET 0 0 7.8731
          }
        }
      }
    }
  }
}
MOTION
Frames:	7
Frame Time:	0.0333333
5.84602e-005 68.8428 3.50346 0 0 -0 0 0 -0 0 0 -0 0 0 -0 0 0 -0 0 0 -0 0 0 -0 0 0 -0 0 0 -0 0 0 -0 0 0 -0 0 0 -0 0 0 -0 0 0 -0 -0.0146107 -8.87603e-005 -2.63497e-007 2.99804e-018 -2.42657e-020 -1.42182e-022 0 0 -0 -0.0187562 -0.001176 5.858e-005 5.06224e-018 3.88251e-019 1.21329e-020 0 0 -0 -0.012269 -0.00324817 0.000675346 -1.74678e-018 3.88251e-019 -0 0 0 -0 0 0 -0 0 0 -0 0 0 -0 0 0 -0 0 0 -0 0 0 -0 0 0 -0 0 0 -0 0 0 -0 0 0 -0 0.0149955 -9.10982e-005 2.64101e-007 -9.69331e-018 1.21329e-020 -4.7394e-023 0 0 -0 0.0189956 -0.00119102 -5.96516e-005 -5.41541e-019 0 2.42657e-020 0 0 -0 0.0122698 -0.00324857 -0.000673756 -2.00796e-019 0 -1.94126e-019 0 0 -0 0 0 -0 0 0 -0 3.39842 1.33031 -0.0637918 -5.65207e-008 0.834868 -0.000436188 -3.39935 -2.16518 -0.0642563 -8.89002e-024 -1.18485e-023 -1.48106e-024 -3.39844 1.35642 0.0640283 -3.18788e-007 0.782166 -0.000588827 3.39931 -2.13858 0.0634662 1.1399e-023 0 -0 
1.40987 58.2588 -4.67331 0 0 -0 -0.00224073 0.293088 -0.0159023 -0.0044002 0.586177 -0.0317937 -0.0044002 0.586177 -0.0317937 -0.0103693 -0.00107185 -0.0291742 1.75262e-009 2.86906e-012 -6.64825e-009 -1.4264 -0.034429 -6.81514e-006 -4.24126 -0.0794889 -6.95166 -0.547971 -11.573 -2.72946 -1.24774 -3.25864e-006 1.15773e-007 -1.78906e-015 3.18055e-015 -1.59028e-015 -1.78906e-015 0 -0 -7.95139e-016 0 -0 -1.78906e-015 3.18055e-015 -1.59028e-015 -0.0146121 -8.89454e-005 -1.28824e-007 -1.19271e-015 -1.59028e-015 -1.59028e-015 -1.78906e-015 3.18055e-015 -1.59028e-015 -0.0187539 -0.00117601 6.01074e-005 2.78299e-015 -1.59028e-015 -0 -1.78906e-015 3.18055e-015 -1.59028e-015 -0.012228 -0.00323615 0.000675587 -1.59028e-015 -1.59028e-015 1.59028e-015 -1.78906e-015 3.18055e-015 -1.59028e-015 -1.78906e-015 0 -0 -7.95139e-016 0 -0 1.42577 -0.0344738 -1.8374e-005 4.24043 -0.0799324 6.951 -4.14621e-008 -1.5303e-007 2.67328 1.24712 3.74092e-008 -9.87696e-007 -1.78906e-015 -5.96354e-016 -3.18055e-015 -8.44835e-016 -1.98785e-016 -4.77083e-015 -8.44835e-016 -3.97569e-016 -4.77083e-015 -1.78906e-015 -5.96354e-016 -3.18055e-015 0.0150114 -9.13061e-005 -5.63595e-007 1.04362e-015 -5.96354e-016 1.59028e-015 -1.78906e-015 -5.96354e-016 -3.18055e-015 0.0190951 -0.00119741 -6.02869e-005 2.03754e-015 -1.98785e-016 1.59028e-015 -1.78906e-015 -5.96354e-016 -3.18055e-015 0.012357 -0.00327097 -0.000682042 6.4605e-016 1.98785e-016 1.59028e-015 -1.78906e-015 -5.96354e-016 -3.18055e-015 -8.44835e-016 -1.98785e-016 -4.77083e-015 -8.44835e-016 -3.97569e-016 -4.77083e-015 2.5188 -8.55906 -1.14534 0.830928 29.1317 -0.729162 -4.92919 6.29826 -0.198523 -7.45443e-017 -3.18055e-015 -0 -2.51921 -8.55886 1.1445 -0.83201 29.1315 0.729631 4.92843 6.29826 0.198241 1.10732e-007 1.66006e-006 4.33078e-009 
2.92954 46.7791 -13.4905 0 0 -0 -0.00407131 0.609119 -0.0331102 -0.00779124 1.21824 -0.0661828 -0.00779123 1.21824 -0.0661828 -0.0331806 -0.00393862 -0.0933141 8.3371e-009 -4.26707e-007 -2.67058e-008 -2.96395 -0.0720831 1.76622e-007 -8.83439 -0.161135 -14.445 -2.47699 -23.9541 -6.08175 -2.59271 -6.3061e-007 -1.38659e-006 7.95139e-016 -3.18055e-015 3.18055e-015 -7.95139e-016 -3.18055e-015 -3.18055e-015 7.95139e-016 0 -0 7.95139e-016 -3.18055e-015 3.18055e-015 -0.0146687 -8.86929e-005 2.79122e-007 4.77083e-015 -6.36111e-015 -0 7.95139e-016 -3.18055e-015 3.18055e-015 -0.0187305 -0.00117544 6.04528e-005 1.14355e-006 -7.90586e-007 -8.06976e-007 7.95139e-016 -3.18055e-015 3.18055e-015 -0.0121592 -0.00321984 0.000667751 2.38542e-015 -3.18055e-015 -3.18055e-015 7.95139e-016 -3.18055e-015 3.18055e-015 -7.95139e-016 -3.18055e-015 -3.18055e-015 7.95139e-016 0 -0 2.96265 -0.0721733 6.22603e-006 8.83278 -0.162035 14.4437 3.68548e-006 2.6153e-007 5.55488 2.59142 7.36444e-007 5.16785e-006 3.59164e-008 2.08627e-007 -2.71744e-008 5.38746e-008 3.1294e-007 -4.07616e-008 3.59164e-008 2.08627e-007 -2.71744e-008 3.59164e-008 2.08627e-007 -2.71744e-008 0.0149836 -9.12026e-005 7.77887e-007 3.59161e-008 2.08623e-007 -2.72017e-008 3.59164e-008 2.08627e-007 -2.71744e-008 0.0189863 -0.00119027 -5.77063e-005 3.59157e-008 2.08622e-007 -2.72093e-008 3.59164e-008 2.08627e-007 -2.71744e-008 0.0121316 -0.00321134 -0.000667596 3.59142e-008 2.08624e-007 -2.71975e-008 3.59164e-008 2.08627e-007 -2.71744e-008 5.38746e-008 3.1294e-007 -4.07616e-008 3.59164e-008 2.08627e-007 -2.71744e-008 1.45194 -18.2581 -2.47328 0.694891 57.8557 -1.00477 -6.42039 16.2415 -0.368129 -2.88493e-007 -6.80065e-009 8.84227e-008 -1.45327 -18.3976 2.46888 -0.69867 57.995 1.01444 6.41896 16.2415 0.367489 -6.3414e-008 -6.24733e-009 -3.35608e-007 
4.44921 35.2959 -22.31 0 0 -0 -0.00529213 0.925063 -0.0503738 -0.00977262 1.85013 -0.100682 -0.00977262 1.85013 -0.100682 -0.056001 -0.00734102 -0.157476 7.73956e-009 4.48395e-011 -2.63899e-008 -4.50149 -0.109326 1.44145e-006 -13.4486 -0.234413 -21.9385 -6.21145 -36.1042 -10.4647 -3.93768 -8.89792e-007 -1.29614e-006 -1.19567e-006 3.50734e-006 -6.30788e-007 1.70303e-006 -3.95649e-006 2.15988e-006 -1.19567e-006 3.50734e-006 -6.30788e-007 -1.19567e-006 3.50734e-006 -6.30788e-007 -0.0145359 -9.21757e-005 1.85056e-006 -1.19575e-006 3.50741e-006 -6.30342e-007 -1.19567e-006 3.50734e-006 -6.30788e-007 -0.0187574 -0.00118074 6.28967e-005 -1.19578e-006 3.50743e-006 -6.30201e-007 -1.19567e-006 3.50734e-006 -6.30788e-007 -0.0121689 -0.00322653 0.000673872 -1.19574e-006 3.50739e-006 -6.30377e-007 -1.19567e-006 3.50734e-006 -6.30788e-007 1.70303e-006 -3.95649e-006 2.15988e-006 -1.19567e-006 3.50734e-006 -6.30788e-007 4.49953 -0.109465 -8.16442e-006 13.4463 -0.23572 21.9365 2.48703e-006 -1.40632e-007 8.43648 3.93571 6.51033e-008 1.98976e-006 -2.38542e-015 -1.59028e-015 6.36111e-015 3.33797e-008 1.26582e-007 -2.56682e-008 3.18055e-015 3.18055e-015 6.36111e-015 -2.38542e-015 -1.59028e-015 6.36111e-015 0.0149133 -9.04481e-005 2.13154e-006 6.12961e-007 -1.8909e-007 -1.77261e-007 -2.38542e-015 -1.59028e-015 6.36111e-015 0.0190954 -0.00119656 -5.86162e-005 6.12431e-007 -1.88957e-007 -1.77252e-007 -2.38542e-015 -1.59028e-015 6.36111e-015 0.0123786 -0.00327619 -0.000679311 3.97569e-015 7.95139e-016 -0 -2.38542e-015 -1.59028e-015 6.36111e-015 3.33797e-008 1.26582e-007 -2.56682e-008 3.18055e-015 3.18055e-015 6.36111e-015 0.14278 -28.0653 -4.18185 -16.2121 86.323 16.6338 -6.99553 26.5981 -2.45755 1.07935e-007 7.26312e-009 -1.17997e-007 -0.142884 -27.9906 4.1812 15.8843 86.2519 -16.3151 6.99365 26.5979 2.45635 -1.07935e-007 7.25793e-009 1.17997e-007 
5.85902 24.6409 -30.4963 0 0 -0 -0.00587866 1.21819 -0.0664421 -0.0103475 2.43639 -0.132804 -0.0103475 2.43639 -0.132804 -0.0663756 -0.00867715 -0.186635 -5.74893e-009 4.26302e-007 -5.32325e-008 -5.92789 -0.144019 1.55034e-006 -17.7465 -0.291375 -28.8904 -12.1434 -46.963 -16.4039 -5.18543 6.36108e-006 6.87576e-006 3.64057e-006 4.74528e-007 -2.02015e-007 3.06499e-006 -4.41649e-007 6.08415e-007 3.64057e-006 4.74528e-007 -2.02015e-007 3.64057e-006 4.74528e-007 -2.02015e-007 -0.0146206 -8.84649e-005 8.68891e-007 -1.59028e-014 -6.36111e-015 -9.54166e-015 3.64057e-006 4.74528e-007 -2.02015e-007 -0.0187279 -0.00117316 5.88435e-005 3.63891e-006 4.74456e-007 -2.0197e-007 3.64057e-006 4.74528e-007 -2.02015e-007 -0.0123582 -0.00327293 0.000683998 -3.18055e-015 -1.27222e-014 -3.18055e-015 3.64057e-006 4.74528e-007 -2.02015e-007 3.06499e-006 -4.41649e-007 6.08415e-007 3.64057e-006 4.74528e-007 -2.02015e-007 5.9253 -0.1442 -4.87049e-006 17.7438 -0.293 28.8877 3.11021e-006 1.6372e-006 11.1098 5.18283 1.97713e-006 5.21536e-006 -1.48286e-007 -4.77152e-007 -2.21658e-006 -6.87019e-008 -1.949e-007 5.33588e-008 -1.13935e-007 -3.79702e-007 -2.24326e-006 -1.48286e-007 -4.77152e-007 -2.21658e-006 0.0150165 -9.14324e-005 -2.60266e-006 -1.67395e-006 1.69626e-007 -2.22516e-006 -1.48286e-007 -4.77152e-007 -2.21658e-006 0.0190078 -0.00119027 -5.87428e-005 -1.67419e-006 1.69608e-007 -2.22515e-006 -1.48286e-007 -4.77152e-007 -2.21658e-006 0.0122714 -0.00325009 -0.00068465 -1.67386e-006 1.69841e-007 -2.22507e-006 -1.48286e-007 -4.77152e-007 -2.21658e-006 -6.87019e-008 -1.949e-007 5.33588e-008 -1.13935e-007 -3.79702e-007 -2.24326e-006 -1.37233 -36.9647 -6.52857 -172.772 67.0982 172.393 -7.16793 36.2429 -4.06995 -3.08675e-007 -2.38654e-008 2.08969e-007 1.36932 -36.9561 6.52473 172.769 67.1064 -172.395 7.16583 36.2427 4.06816 2.94982e-007 9.47915e-006 -2.81655e-007 
7.04911 15.6468 -37.4143 0 0 -0 -0.00596359 1.46564 -0.0800432 -0.00988305 2.93128 -0.160012 -0.00988305 2.93128 -0.160012 -0.0518516 -0.00647219 -0.145807 -1.60852e-008 -8.52174e-007 1.04936e-007 -7.13199 -0.173327 -1.213e-006 -21.3861 -0.328938 -34.7589 -20.2555 -55.5302 -24.1142 -6.23872 -1.68313e-005 -4.05982e-006 -6.36111e-015 7.95139e-015 -0 8.82781e-032 1.59028e-015 -3.18055e-015 -3.18055e-015 3.18055e-015 -0 -6.36111e-015 7.95139e-015 -0 -0.014616 -8.88281e-005 -3.62508e-006 9.54166e-015 -3.18055e-015 -6.36111e-015 -6.36111e-015 7.95139e-015 -0 -0.0187543 -0.00117794 5.91948e-005 3.18055e-015 7.95139e-015 6.36111e-015 -6.36111e-015 7.95139e-015 -0 -0.0123109 -0.00326167 0.000676137 3.18055e-015 6.36111e-015 -6.36111e-015 -6.36111e-015 7.95139e-015 -0 8.82781e-032 1.59028e-015 -3.18055e-015 -3.18055e-015 3.18055e-015 -0 7.12888 -0.173542 2.68343e-006 21.383 -0.33079 34.7556 3.65114e-006 -2.35037e-006 13.3664 6.2356 1.07028e-006 4.94368e-006 7.15625e-015 3.18055e-015 6.36111e-015 3.18055e-015 -3.18055e-015 -9.54166e-015 -1.59028e-015 -7.15625e-015 3.18055e-015 7.15625e-015 3.18055e-015 6.36111e-015 0.0149656 -9.11597e-005 -3.29125e-006 -1.01535e-006 7.27918e-007 8.47836e-007 7.15625e-015 3.18055e-015 6.36111e-015 0.0189886 -0.0011905 -5.99446e-005 3.18055e-015 3.97569e-015 1.27222e-014 7.15625e-015 3.18055e-015 6.36111e-015 0.0122839 -0.0032542 -0.000677365 7.15625e-015 3.18055e-015 1.90833e-014 7.15625e-015 3.18055e-015 6.36111e-015 3.18055e-015 -3.18055e-015 -9.54166e-015 -1.59028e-015 -7.15625e-015 3.18055e-015 -2.94406 -44.4673 -9.83876 -174.158 44.9547 172.125 -6.24474 44.5233 -6.53826 4.26841e-007 1.57095e-008 7.43952e-007 2.93911 -44.4652 9.83294 174.156 44.9561 -172.129 6.2428 44.5229 6.53569 6.01952e-007 2.09637e-006 4.22566e-007 
7.90962 9.14685 -42.4291 0 0 -0 -0.00579056 1.64456 -0.0898975 -0.00900407 3.28912 -0.17974 -0.00900407 3.28912 -0.17974 1.85973e-007 -2.63984e-005 1.17469e-006 1.2424e-017 3.18055e-015 -1.49089e-016 -8.00266 -0.194494 -2.34951e-006 -24.0235 -0.349137 -39.0023 -29.0356 -61.0952 -32.3795 -7.00032 -9.22155e-006 -8.4019e-006 -3.12401e-006 3.90036e-008 5.97414e-007 -4.52048e-006 -1.62723e-006 3.45507e-006 -3.31017e-006 -6.39824e-007 4.04349e-006 -3.12401e-006 3.90036e-008 5.97414e-007 -0.0145792 -9.37687e-005 -6.28952e-006 -4.52005e-006 -1.62767e-006 3.45487e-006 -3.12401e-006 3.90036e-008 5.97414e-007 -0.0188098 -0.00117699 5.91487e-005 -4.51989e-006 -1.62776e-006 3.45485e-006 -3.12401e-006 3.90036e-008 5.97414e-007 -0.0122421 -0.00324483 0.000675505 -4.52003e-006 -1.62748e-006 3.455e-006 -3.12401e-006 3.90036e-008 5.97414e-007 -4.52048e-006 -1.62723e-006 3.45507e-006 -3.31017e-006 -6.39824e-007 4.04349e-006 7.99916 -0.194738 5.03653e-006 24.0201 -0.351099 38.9987 2.67258e-006 1.88495e-006 14.9982 6.99682 4.6294e-006 5.18954e-007 1.59028e-015 6.36111e-015 3.18055e-015 1.7814e-007 3.61689e-007 -1.39077e-007 -4.77083e-015 -4.77083e-015 6.36111e-015 1.59028e-015 6.36111e-015 3.18055e-015 0.0150055 -8.9468e-005 8.66376e-007 4.77083e-015 -4.77083e-015 3.18055e-015 1.59028e-015 6.36111e-015 3.18055e-015 0.0189672 -0.00118882 -6.33377e-005 -3.18055e-015 -6.36111e-015 9.54166e-015 1.59028e-015 6.36111e-015 3.18055e-015 0.0122687 -0.00324713 -0.000680057 -3.35138e-006 2.16697e-006 -2.78725e-008 1.59028e-015 6.36111e-015 3.18055e-015 1.7814e-007 3.61689e-007 -1.39077e-007 -4.77083e-015 -4.77083e-015 6.36111e-015 -4.23057 -49.9394 -14.1341 -174.76 28.9413 170.101 -3.91122 50.6233 -10.0563 6.24259e-007 4.82897e-008 7.17104e-007 4.22913 -49.9277 14.1301 174.751 28.9509 -170.104 3.91008 50.6228 10.0525 2.05847e-007 -1.88168e-008 -5.31424e-008 
